# xmcd
#
# Track frame offsets: 
#        150
#        18135
#        37085
#        47820
#        62222
#        77872
#        89375
#        102270
#        115392
#        126840
#
# Disc length: 1871 seconds
#
# Revision: 0
# Processed by: cddbd v1.5.2PL0 Copyright (c) Steve Scherf et al.
# Submitted via: ExactAudioCopy v0.99pb4
#
DISCID=84074d0a
DTITLE=Charles Brown - Charles Brown Sings The Blues
DYEAR=1900
DGENRE=Blues
TTITLE0=Driftin'
TTITLE1=Since I Fell For You
TTITLE2=Pledging My Love
TTITLE3=Tomorrow Night
TTITLE4=I'm Just Fooling Myself
TTITLE5=Glory Of Love
TTITLE6=Blueberry Hill
TTITLE7=I Won't Cry Anymore
TTITLE8=I Miss You So
TTITLE9=Harbor Lights
EXTD=
EXTT0=
EXTT1=
EXTT2=
EXTT3=
EXTT4=
EXTT5=
EXTT6=
EXTT7=
EXTT8=
EXTT9=
PLAYORDER=
